<svg xmlns="http://www.w3.org/2000/svg" width="69" height="74.9" viewBox="15.01 12.6 69 75.8" fill="#41a4c3">
<path xmlns="http://www.w3.org/2000/svg" d="M49.4,12.8c-1.2,0.3-2,1.1-2.7,2.3l-0.4,0.7v13v13l0.4,0.8c0.5,0.9,1.2,1.7,2,2.1c0.6,0.3,0.8,0.3,4.5,0.4l3.9,0.1l0.1,4.2  l0.1,4.2l3.7-4.2l3.7-4.2h8.2h8.3l0.8-0.4c0.9-0.5,1.6-1.2,2.1-2.2l0.3-0.7V28.9V16.1L84,15.3c-0.5-1-1.4-1.9-2.3-2.3l-0.7-0.3  l-15.5,0C53.6,12.6,49.9,12.7,49.4,12.8z M80.9,14.6c0.5,0.2,1.1,0.8,1.4,1.3c0.2,0.4,0.2,1.5,0.3,12.6c0,8.9,0,12.4-0.1,12.8  c-0.2,0.7-0.8,1.4-1.3,1.7c-0.4,0.2-1.2,0.2-9,0.3l-8.5,0L61.3,46l-2.2,2.6L59,47.2c0-0.8-0.1-1.9-0.1-2.6v-1.2l-4.4,0  c-4.1,0-4.5-0.1-5-0.3c-0.6-0.3-1.2-1.1-1.4-1.9C48,40.7,48,36.6,48,28.8c0-12.7,0-12.5,0.8-13.4c0.2-0.2,0.6-0.5,0.9-0.7  c0.5-0.2,1.3-0.2,15.7-0.2C77.8,14.5,80.6,14.5,80.9,14.6z M72.5,18.5c-0.2,0-3,0.3-6.1,0.7c-3.1,0.4-6,0.7-6.3,0.7L59.5,20v6.3v6.3  l-1.4,0c-1.3,0-1.5,0-2.3,0.4c-3.1,1.5-2,5.1,1.6,5.4c1.7,0.1,3.1-0.5,3.8-1.7l0.4-0.6l0-6l0-6l4.9-0.6c2.7-0.3,5.1-0.6,5.3-0.6  l0.4-0.1V27v4.1L71.6,31c-2.5-0.4-4.6,0.9-4.6,2.9c0,1.1,0.6,1.9,1.8,2.5c0.6,0.3,0.8,0.4,2,0.4c1.1,0,1.4,0,1.9-0.3  c0.8-0.4,1.3-0.9,1.6-1.5c0.2-0.5,0.2-0.9,0.2-8.5v-8l-0.8,0C73.2,18.4,72.7,18.5,72.5,18.5z M37.8,47.9c-0.4,0.3-0.4,0.7,0,1.7  c0.1,0.4,0.2,0.8,0.2,0.8s-0.7-0.4-1.5-1c-1.7-1.1-1.9-1.2-2.3-1c-0.7,0.5-0.6,0.8,0.9,3.3c0.4,0.7,0.7,1.3,0.7,1.4  c0,0.1-0.5,0.4-1,0.7c-2.9,1.5-5.1,3.9-6.9,7.3c-0.8,1.6-1.2,2-2.4,2.7c-2,1-4.1,0.8-6.1-0.6c-0.8-0.5-1.4-1.5-1.8-2.7  c-0.2-0.5-0.4-1-0.5-1.1c-0.3-0.2-0.6,0.1-0.9,0.8c-0.2,0.5-0.3,0.8-0.2,1.9c0.2,3.9,2.1,8.4,5.3,12.6c3.6,4.8,7.9,7.9,13,9.4  l1.3,0.4v0.6c0,0.3,0,1-0.1,1.4l-0.1,0.8l0.8,0.2l0.8,0.2l0-0.6c0-0.8,0.2-2,0.3-2.1c0-0.1,0.6,0,1.2,0l1.1,0.1l-0.1,0.9  c0,0.5-0.1,1.2-0.2,1.5l-0.1,0.6l0.8,0.1c0.5,0.1,0.9,0.1,0.9,0.1c0.1-0.1,0.4-2.3,0.4-2.8v-0.4l1.3-0.1c2.5-0.2,4.9-1,7.4-2.7  c2.9-2,4.5-4.1,5.7-8.1c0.8-2.3,1-4.7,0.8-7.6l-0.1-1.2l1.9-1.7c1.9-1.7,2.2-2.2,2-2.7c-0.2-0.3-0.9-0.5-3.3-0.8  c-1.3-0.1-2.4-0.3-2.5-0.3c-0.1,0-0.6-0.6-1-1.3c-1.6-2.3-4-4.3-6.5-5.4c-0.6-0.3-1.1-0.5-1.1-0.6c-0.3-0.4-3.2-3.7-3.5-3.9  c-0.5-0.3-0.8-0.1-1,0.8l-0.2,0.8l-1.3-1.3C38.6,47.8,38.2,47.6,37.8,47.9z M49.4,59.5c0.8,0.6,1.1,2.3,0.7,3.3  c-0.5,1.3-1.8,0.4-2-1.4C48,59.7,48.5,58.9,49.4,59.5z"></path>
</svg>