<svg xmlns="http://www.w3.org/2000/svg" fill="#58d5d3" width="73.16" height="20.28" viewBox="0.54 6.5 74.1 13.78">
<path d="M0.54 16.34 l3.3 -0.68 c0.02 1.4 1.1 1.84 2.2 1.84 c1.04 0 1.64 -0.38 1.64 -1 c0 -2.1 -6.78 -1.14 -6.78 -5.94 c0 -2.64 2.04 -4.06 5.1 -4.06 c3.08 0 5.02 1.46 4.92 3.58 l-3.3 0.68 c-0.02 -0.54 -0.14 -1.48 -1.7 -1.48 c-1.08 0 -1.62 0.44 -1.62 1.04 c0 2.18 6.78 1.04 6.78 5.82 c0 2.4 -1.7 4.14 -5.08 4.14 c-3.6 0 -5.58 -1.96 -5.46 -3.94 z M12.6 7.4 c0 -0.96 0.8 -1.74 1.76 -1.74 c0.98 0 1.76 0.78 1.76 1.74 s-0.78 1.76 -1.76 1.76 c-0.96 0 -1.76 -0.8 -1.76 -1.76 z M12.8 20 l0 -9.34 l3.12 0 l0 9.34 l-3.12 0 z M18 20 l0 -9.34 l2.9 0 l0 1.48 c0.24 -0.56 1.02 -1.76 3.1 -1.76 c1.38 0 2.98 0.56 2.98 3.48 l0 6.14 l-3.12 0 l0 -5.34 c0 -1.1 -0.26 -1.64 -0.9 -1.64 c-1.12 0 -1.68 1.56 -1.84 2.16 l0 4.82 l-3.12 0 z M37.9 10.66 l0 9.34 l-2.82 0 l-0.08 -1.46 c-0.26 0.56 -1.04 1.74 -3.1 1.74 c-1.38 0 -2.98 -0.56 -2.98 -3.48 l0 -6.14 l3.12 0 l0 5.34 c0 1.1 0.26 1.64 0.9 1.64 c1.08 0 1.66 -1.82 1.84 -2.5 l0 -4.48 l3.12 0 z M39.66 13.16 l0 -2.5 l7.82 0 l0 1.96 l-3.78 4.88 l3.94 0 l0 2.5 l-7.94 0 l0 -1.94 l3.76 -4.9 l-3.8 0 z M53.81999999999999 20.28 c-3.78 0 -4.92 -2.34 -4.92 -5.02 c0 -2.62 1.08 -4.88 4.86 -4.88 c3.86 0 4.88 2.34 4.88 4.92 c0 2.74 -1.14 4.98 -4.82 4.98 z M53.78 17.96 c1.36 0 1.62 -1.26 1.62 -2.62 s-0.26 -2.64 -1.64 -2.64 c-1.36 0 -1.62 1.28 -1.62 2.6 c0 1.34 0.26 2.66 1.64 2.66 z M60.1 7.4 c0 -0.96 0.8 -1.74 1.76 -1.74 c0.98 0 1.76 0.78 1.76 1.74 s-0.78 1.76 -1.76 1.76 c-0.96 0 -1.76 -0.8 -1.76 -1.76 z M60.3 20 l0 -9.34 l3.12 0 l0 9.34 l-3.12 0 z M72.05999999999999 20 l-0.12 -1.06 c-0.46 0.66 -1.18 1.34 -2.74 1.34 c-3.14 0 -4.14 -2.7 -4.14 -5 c0 -2.92 1.6 -4.9 4.36 -4.9 c1 0 1.64 0.26 2.06 0.64 l0 -5.38 l3.12 0 l0 14.36 l-2.54 0 z M69.83999999999999 17.96 c1.12 0 1.64 -0.84 1.64 -2.76 c0 -1.36 -0.26 -2.5 -1.6 -2.5 c-1.1 0 -1.58 0.78 -1.58 2.68 c0 1.76 0.42 2.58 1.54 2.58 z"></path>
</svg>